<svg width="55" height="55" viewBox="0 0 55 55" fill="none" xmlns="http://www.w3.org/2000/svg">
<path d="M19.65 24C18.95 24 18.375 23.7333 17.925 23.2C17.475 22.6667 17.3167 22.0667 17.45 21.4L18.2 16.9C18.4667 15.4667 19.1417 14.2917 20.225 13.375C21.3083 12.4583 22.5667 12 24 12C25.4667 12 26.7417 12.4583 27.825 13.375C28.9083 14.2917 29.5833 15.4667 29.85 16.9L30.6 21.4C30.7333 22.0667 30.575 22.6667 30.125 23.2C29.675 23.7333 29.1 24 28.4 24H19.65ZM20.55 21H27.5L26.9 17.4C26.7667 16.7 26.4333 16.125 25.9 15.675C25.3667 15.225 24.75 15 24.05 15C23.3167 15 22.6833 15.225 22.15 15.675C21.6167 16.125 21.2833 16.7 21.15 17.4L20.55 21ZM6.95 27.55C6.28333 27.5833 5.7 27.45 5.2 27.15C4.7 26.85 4.38333 26.4 4.25 25.8C4.18333 25.5333 4.175 25.2667 4.225 25C4.275 24.7333 4.35 24.4833 4.45 24.25C4.45 24.2833 4.43333 24.2167 4.4 24.05C4.4 24.0167 4.25 23.6667 3.95 23C3.88333 22.6333 3.91667 22.3083 4.05 22.025C4.18333 21.7417 4.38333 21.4667 4.65 21.2L4.75 21.1C4.81667 20.5333 5.05 20.0667 5.45 19.7C5.85 19.3333 6.33333 19.15 6.9 19.15C6.93333 19.15 7.2 19.2 7.7 19.3L7.85 19.25C8.01667 19.1167 8.20833 19.0083 8.425 18.925C8.64167 18.8417 8.88333 18.8 9.15 18.8C9.45 18.8 9.73333 18.8583 10 18.975C10.2667 19.0917 10.4667 19.25 10.6 19.45C10.6333 19.45 10.6583 19.4583 10.675 19.475C10.6917 19.4917 10.7167 19.5 10.75 19.5C11.15 19.5333 11.5 19.6583 11.8 19.875C12.1 20.0917 12.3333 20.3833 12.5 20.75C12.5667 20.95 12.5917 21.15 12.575 21.35C12.5583 21.55 12.5167 21.7333 12.45 21.9C12.45 21.9667 12.4667 22.0167 12.5 22.05C12.7 22.25 12.8583 22.475 12.975 22.725C13.0917 22.975 13.15 23.2333 13.15 23.5C13.15 23.5667 13.0667 23.8667 12.9 24.4C12.8667 24.4667 12.8667 24.5333 12.9 24.6C12.9333 24.7333 12.95 24.9667 12.95 25.3C12.95 25.9 12.7 26.425 12.2 26.875C11.7 27.325 11.0833 27.55 10.35 27.55H6.95ZM40.4 27.5C39.4333 27.5 38.6083 27.1583 37.925 26.475C37.2417 25.7917 36.9 24.9667 36.9 24C36.9 23.6333 36.9583 23.2917 37.075 22.975C37.1917 22.6583 37.3333 22.3667 37.5 22.1L36.25 21C35.9833 20.7333 35.9333 20.4333 36.1 20.1C36.2667 19.7667 36.5333 19.6 36.9 19.6H40.4C41.3667 19.6 42.1917 19.9417 42.875 20.625C43.5583 21.3083 43.9 22.1333 43.9 23.1V24C43.9 24.9667 43.5583 25.7917 42.875 26.475C42.1917 27.1583 41.3667 27.5 40.4 27.5ZM0 36V33.35C0 32.05 0.7 31 2.1 30.2C3.5 29.4 5.3 29 7.5 29C7.93333 29 8.33333 29.0083 8.7 29.025C9.06667 29.0417 9.43333 29.0833 9.8 29.15C9.53333 29.7167 9.33333 30.2917 9.2 30.875C9.06667 31.4583 9 32.0833 9 32.75V36H0ZM12 36V32.75C12 30.5833 13.1083 28.8333 15.325 27.5C17.5417 26.1667 20.4333 25.5 24 25.5C27.6 25.5 30.5 26.1667 32.7 27.5C34.9 28.8333 36 30.5833 36 32.75V36H12ZM40.5 29C42.7667 29 44.5833 29.4 45.95 30.2C47.3167 31 48 32.05 48 33.35V36H39V32.75C39 32.0833 38.9417 31.4583 38.825 30.875C38.7083 30.2917 38.5167 29.7167 38.25 29.15C38.6167 29.0833 38.9833 29.0417 39.35 29.025C39.7167 29.0083 40.1 29 40.5 29ZM24 28.5C21.3333 28.5 19.1667 28.9 17.5 29.7C15.8333 30.5 15 31.5167 15 32.75V33H33V32.7C33 31.5 32.175 30.5 30.525 29.7C28.875 28.9 26.7 28.5 24 28.5Z" fill="#F6F6F6"/>
</svg>
