<svg width="55" height="55" viewBox="0 0 55 55" fill="none" xmlns="http://www.w3.org/2000/svg">
<path d="M14 17H34V14H14V17ZM14 25.5H25.3C25.9 24.9 26.55 24.3417 27.25 23.825C27.95 23.3083 28.6833 22.8667 29.45 22.5H14V25.5ZM14 34H21.15C21.2167 33.4667 21.3083 32.95 21.425 32.45C21.5417 31.95 21.6833 31.4667 21.85 31H14V34ZM9 42C8.16667 42 7.45833 41.7083 6.875 41.125C6.29167 40.5417 6 39.8333 6 39V9C6 8.16667 6.29167 7.45833 6.875 6.875C7.45833 6.29167 8.16667 6 9 6H39C39.8333 6 40.5417 6.29167 41.125 6.875C41.7083 7.45833 42 8.16667 42 9V22.25C41.5333 22.05 41.05 21.8667 40.55 21.7C40.05 21.5333 39.5333 21.4 39 21.3V9H9V39H21.3C21.4 39.5333 21.5333 40.05 21.7 40.55C21.8667 41.05 22.05 41.5333 22.25 42H9ZM36 46C33.5667 46 31.4417 45.2417 29.625 43.725C27.8083 42.2083 26.6667 40.3 26.2 38H29.3C29.7333 39.4667 30.5583 40.6667 31.775 41.6C32.9917 42.5333 34.4 43 36 43C37.9333 43 39.5833 42.3167 40.95 40.95C42.3167 39.5833 43 37.9333 43 36C43 34.0667 42.3167 32.4167 40.95 31.05C39.5833 29.6833 37.9333 29 36 29C35.0333 29 34.1333 29.175 33.3 29.525C32.4667 29.875 31.7333 30.3667 31.1 31H34V34H26V26H29V28.85C29.9 27.9833 30.95 27.2917 32.15 26.775C33.35 26.2583 34.6333 26 36 26C38.7667 26 41.125 26.975 43.075 28.925C45.025 30.875 46 33.2333 46 36C46 38.7667 45.025 41.125 43.075 43.075C41.125 45.025 38.7667 46 36 46Z" fill="#F6F6F6"/>
</svg>
