<svg width="184" height="224" viewBox="0 0 184 224" fill="none" xmlns="http://www.w3.org/2000/svg">
<rect width="184" height="224" fill="#F6F6F6"/>
<path d="M70.0849 130.96C70.0849 129.928 70.2769 129.022 70.6609 128.242C71.0569 127.462 71.5909 126.862 72.2629 126.442C72.9349 126.022 73.6849 125.812 74.5129 125.812C75.2209 125.812 75.8389 125.956 76.3669 126.244C76.9069 126.532 77.3209 126.91 77.6089 127.378V125.956H80.6869V136H77.6089V134.578C77.3089 135.046 76.8889 135.424 76.3489 135.712C75.8209 136 75.2029 136.144 74.4949 136.144C73.6789 136.144 72.9349 135.934 72.2629 135.514C71.5909 135.082 71.0569 134.476 70.6609 133.696C70.2769 132.904 70.0849 131.992 70.0849 130.96ZM77.6089 130.978C77.6089 130.21 77.3929 129.604 76.9609 129.16C76.5409 128.716 76.0249 128.494 75.4129 128.494C74.8009 128.494 74.2789 128.716 73.8469 129.16C73.4269 129.592 73.2169 130.192 73.2169 130.96C73.2169 131.728 73.4269 132.34 73.8469 132.796C74.2789 133.24 74.8009 133.462 75.4129 133.462C76.0249 133.462 76.5409 133.24 76.9609 132.796C77.3929 132.352 77.6089 131.746 77.6089 130.978ZM89.0337 125.848C90.2097 125.848 91.1457 126.232 91.8417 127C92.5497 127.756 92.9037 128.8 92.9037 130.132V136H89.8437V130.546C89.8437 129.874 89.6697 129.352 89.3217 128.98C88.9737 128.608 88.5057 128.422 87.9177 128.422C87.3297 128.422 86.8617 128.608 86.5137 128.98C86.1657 129.352 85.9917 129.874 85.9917 130.546V136H82.9137V125.956H85.9917V127.288C86.3037 126.844 86.7237 126.496 87.2517 126.244C87.7797 125.98 88.3737 125.848 89.0337 125.848ZM99.6146 136.144C98.6306 136.144 97.7426 135.934 96.9506 135.514C96.1706 135.094 95.5526 134.494 95.0966 133.714C94.6526 132.934 94.4306 132.022 94.4306 130.978C94.4306 129.946 94.6586 129.04 95.1146 128.26C95.5706 127.468 96.1946 126.862 96.9866 126.442C97.7786 126.022 98.6666 125.812 99.6506 125.812C100.635 125.812 101.523 126.022 102.315 126.442C103.107 126.862 103.731 127.468 104.187 128.26C104.643 129.04 104.871 129.946 104.871 130.978C104.871 132.01 104.637 132.922 104.169 133.714C103.713 134.494 103.083 135.094 102.279 135.514C101.487 135.934 100.599 136.144 99.6146 136.144ZM99.6146 133.48C100.203 133.48 100.701 133.264 101.109 132.832C101.529 132.4 101.739 131.782 101.739 130.978C101.739 130.174 101.535 129.556 101.127 129.124C100.731 128.692 100.239 128.476 99.6506 128.476C99.0506 128.476 98.5526 128.692 98.1566 129.124C97.7606 129.544 97.5626 130.162 97.5626 130.978C97.5626 131.782 97.7546 132.4 98.1386 132.832C98.5346 133.264 99.0266 133.48 99.6146 133.48ZM110.59 136.144C109.714 136.144 108.934 135.994 108.25 135.694C107.566 135.394 107.026 134.986 106.63 134.47C106.234 133.942 106.012 133.354 105.964 132.706H109.006C109.042 133.054 109.204 133.336 109.492 133.552C109.78 133.768 110.134 133.876 110.554 133.876C110.938 133.876 111.232 133.804 111.436 133.66C111.652 133.504 111.76 133.306 111.76 133.066C111.76 132.778 111.61 132.568 111.31 132.436C111.01 132.292 110.524 132.136 109.852 131.968C109.132 131.8 108.532 131.626 108.052 131.446C107.572 131.254 107.158 130.96 106.81 130.564C106.462 130.156 106.288 129.61 106.288 128.926C106.288 128.35 106.444 127.828 106.756 127.36C107.08 126.88 107.548 126.502 108.16 126.226C108.784 125.95 109.522 125.812 110.374 125.812C111.634 125.812 112.624 126.124 113.344 126.748C114.076 127.372 114.496 128.2 114.604 129.232H111.76C111.712 128.884 111.556 128.608 111.292 128.404C111.04 128.2 110.704 128.098 110.284 128.098C109.924 128.098 109.648 128.17 109.456 128.314C109.264 128.446 109.168 128.632 109.168 128.872C109.168 129.16 109.318 129.376 109.618 129.52C109.93 129.664 110.41 129.808 111.058 129.952C111.802 130.144 112.408 130.336 112.876 130.528C113.344 130.708 113.752 131.008 114.1 131.428C114.46 131.836 114.646 132.388 114.658 133.084C114.658 133.672 114.49 134.2 114.154 134.668C113.83 135.124 113.356 135.484 112.732 135.748C112.12 136.012 111.406 136.144 110.59 136.144ZM24.6278 157.96C24.6278 156.928 24.8198 156.022 25.2038 155.242C25.5998 154.462 26.1338 153.862 26.8058 153.442C27.4778 153.022 28.2278 152.812 29.0558 152.812C29.7158 152.812 30.3158 152.95 30.8558 153.226C31.4078 153.502 31.8398 153.874 32.1518 154.342V149.68H35.2298V163H32.1518V161.56C31.8638 162.04 31.4498 162.424 30.9098 162.712C30.3818 163 29.7638 163.144 29.0558 163.144C28.2278 163.144 27.4778 162.934 26.8058 162.514C26.1338 162.082 25.5998 161.476 25.2038 160.696C24.8198 159.904 24.6278 158.992 24.6278 157.96ZM32.1518 157.978C32.1518 157.21 31.9358 156.604 31.5038 156.16C31.0838 155.716 30.5678 155.494 29.9558 155.494C29.3438 155.494 28.8218 155.716 28.3898 156.16C27.9698 156.592 27.7598 157.192 27.7598 157.96C27.7598 158.728 27.9698 159.34 28.3898 159.796C28.8218 160.24 29.3438 160.462 29.9558 160.462C30.5678 160.462 31.0838 160.24 31.5038 159.796C31.9358 159.352 32.1518 158.746 32.1518 157.978ZM46.9246 157.816C46.9246 158.104 46.9066 158.404 46.8706 158.716H39.9046C39.9526 159.34 40.1506 159.82 40.4986 160.156C40.8586 160.48 41.2966 160.642 41.8126 160.642C42.5806 160.642 43.1146 160.318 43.4146 159.67H46.6906C46.5226 160.33 46.2166 160.924 45.7726 161.452C45.3406 161.98 44.7946 162.394 44.1346 162.694C43.4746 162.994 42.7366 163.144 41.9206 163.144C40.9366 163.144 40.0606 162.934 39.2926 162.514C38.5246 162.094 37.9246 161.494 37.4926 160.714C37.0606 159.934 36.8446 159.022 36.8446 157.978C36.8446 156.934 37.0546 156.022 37.4746 155.242C37.9066 154.462 38.5066 153.862 39.2746 153.442C40.0426 153.022 40.9246 152.812 41.9206 152.812C42.8926 152.812 43.7566 153.016 44.5126 153.424C45.2686 153.832 45.8566 154.414 46.2766 155.17C46.7086 155.926 46.9246 156.808 46.9246 157.816ZM43.7746 157.006C43.7746 156.478 43.5946 156.058 43.2346 155.746C42.8746 155.434 42.4246 155.278 41.8846 155.278C41.3686 155.278 40.9306 155.428 40.5706 155.728C40.2226 156.028 40.0066 156.454 39.9226 157.006H43.7746ZM61.8309 157.816C61.8309 158.104 61.8129 158.404 61.7769 158.716H54.8109C54.8589 159.34 55.0569 159.82 55.4049 160.156C55.7649 160.48 56.2029 160.642 56.7189 160.642C57.4869 160.642 58.0209 160.318 58.3209 159.67H61.5969C61.4289 160.33 61.1229 160.924 60.6789 161.452C60.2469 161.98 59.7009 162.394 59.0409 162.694C58.3809 162.994 57.6429 163.144 56.8269 163.144C55.8429 163.144 54.9669 162.934 54.1989 162.514C53.4309 162.094 52.8309 161.494 52.3989 160.714C51.9669 159.934 51.7509 159.022 51.7509 157.978C51.7509 156.934 51.9609 156.022 52.3809 155.242C52.8129 154.462 53.4129 153.862 54.1809 153.442C54.9489 153.022 55.8309 152.812 56.8269 152.812C57.7989 152.812 58.6629 153.016 59.4189 153.424C60.1749 153.832 60.7629 154.414 61.1829 155.17C61.6149 155.926 61.8309 156.808 61.8309 157.816ZM58.6809 157.006C58.6809 156.478 58.5009 156.058 58.1409 155.746C57.7809 155.434 57.3309 155.278 56.7909 155.278C56.2749 155.278 55.8369 155.428 55.4769 155.728C55.1289 156.028 54.9129 156.454 54.8289 157.006H58.6809ZM69.3947 163L67.4687 160.21L65.8487 163H62.5187L65.8307 157.87L62.4287 152.956H65.8847L67.8107 155.728L69.4307 152.956H72.7607L69.3947 158.014L72.8507 163H69.3947ZM77.1147 154.378C77.4147 153.91 77.8287 153.532 78.3567 153.244C78.8847 152.956 79.5027 152.812 80.2107 152.812C81.0387 152.812 81.7887 153.022 82.4607 153.442C83.1327 153.862 83.6607 154.462 84.0447 155.242C84.4407 156.022 84.6387 156.928 84.6387 157.96C84.6387 158.992 84.4407 159.904 84.0447 160.696C83.6607 161.476 83.1327 162.082 82.4607 162.514C81.7887 162.934 81.0387 163.144 80.2107 163.144C79.5147 163.144 78.8967 163 78.3567 162.712C77.8287 162.424 77.4147 162.052 77.1147 161.596V167.788H74.0367V152.956H77.1147V154.378ZM81.5067 157.96C81.5067 157.192 81.2907 156.592 80.8587 156.16C80.4387 155.716 79.9167 155.494 79.2927 155.494C78.6807 155.494 78.1587 155.716 77.7267 156.16C77.3067 156.604 77.0967 157.21 77.0967 157.978C77.0967 158.746 77.3067 159.352 77.7267 159.796C78.1587 160.24 78.6807 160.462 79.2927 160.462C79.9047 160.462 80.4267 160.24 80.8587 159.796C81.2907 159.34 81.5067 158.728 81.5067 157.96ZM95.7215 157.816C95.7215 158.104 95.7035 158.404 95.6675 158.716H88.7015C88.7495 159.34 88.9475 159.82 89.2955 160.156C89.6555 160.48 90.0935 160.642 90.6095 160.642C91.3775 160.642 91.9115 160.318 92.2115 159.67H95.4875C95.3195 160.33 95.0135 160.924 94.5695 161.452C94.1375 161.98 93.5915 162.394 92.9315 162.694C92.2715 162.994 91.5335 163.144 90.7175 163.144C89.7335 163.144 88.8575 162.934 88.0895 162.514C87.3215 162.094 86.7215 161.494 86.2895 160.714C85.8575 159.934 85.6415 159.022 85.6415 157.978C85.6415 156.934 85.8515 156.022 86.2715 155.242C86.7035 154.462 87.3035 153.862 88.0715 153.442C88.8395 153.022 89.7215 152.812 90.7175 152.812C91.6895 152.812 92.5535 153.016 93.3095 153.424C94.0655 153.832 94.6535 154.414 95.0735 155.17C95.5055 155.926 95.7215 156.808 95.7215 157.816ZM92.5715 157.006C92.5715 156.478 92.3915 156.058 92.0315 155.746C91.6715 155.434 91.2215 155.278 90.6815 155.278C90.1655 155.278 89.7275 155.428 89.3675 155.728C89.0195 156.028 88.8035 156.454 88.7195 157.006H92.5715ZM100.423 154.63C100.783 154.078 101.233 153.646 101.773 153.334C102.313 153.01 102.913 152.848 103.573 152.848V156.106H102.727C101.959 156.106 101.383 156.274 100.999 156.61C100.615 156.934 100.423 157.51 100.423 158.338V163H97.3453V152.956H100.423V154.63ZM106.593 151.912C106.053 151.912 105.609 151.756 105.261 151.444C104.925 151.12 104.757 150.724 104.757 150.256C104.757 149.776 104.925 149.38 105.261 149.068C105.609 148.744 106.053 148.582 106.593 148.582C107.121 148.582 107.553 148.744 107.889 149.068C108.237 149.38 108.411 149.776 108.411 150.256C108.411 150.724 108.237 151.12 107.889 151.444C107.553 151.756 107.121 151.912 106.593 151.912ZM108.123 152.956V163H105.045V152.956H108.123ZM119.821 157.816C119.821 158.104 119.803 158.404 119.767 158.716H112.801C112.849 159.34 113.047 159.82 113.395 160.156C113.755 160.48 114.193 160.642 114.709 160.642C115.477 160.642 116.011 160.318 116.311 159.67H119.587C119.419 160.33 119.113 160.924 118.669 161.452C118.237 161.98 117.691 162.394 117.031 162.694C116.371 162.994 115.633 163.144 114.817 163.144C113.833 163.144 112.957 162.934 112.189 162.514C111.421 162.094 110.821 161.494 110.389 160.714C109.957 159.934 109.741 159.022 109.741 157.978C109.741 156.934 109.951 156.022 110.371 155.242C110.803 154.462 111.403 153.862 112.171 153.442C112.939 153.022 113.821 152.812 114.817 152.812C115.789 152.812 116.653 153.016 117.409 153.424C118.165 153.832 118.753 154.414 119.173 155.17C119.605 155.926 119.821 156.808 119.821 157.816ZM116.671 157.006C116.671 156.478 116.491 156.058 116.131 155.746C115.771 155.434 115.321 155.278 114.781 155.278C114.265 155.278 113.827 155.428 113.467 155.728C113.119 156.028 112.903 156.454 112.819 157.006H116.671ZM114.781 150.724L111.991 152.2V150.076L114.781 148.654L117.571 150.076V152.2L114.781 150.724ZM127.565 152.848C128.741 152.848 129.677 153.232 130.373 154C131.081 154.756 131.435 155.8 131.435 157.132V163H128.375V157.546C128.375 156.874 128.201 156.352 127.853 155.98C127.505 155.608 127.037 155.422 126.449 155.422C125.861 155.422 125.393 155.608 125.045 155.98C124.697 156.352 124.523 156.874 124.523 157.546V163H121.445V152.956H124.523V154.288C124.835 153.844 125.255 153.496 125.783 153.244C126.311 152.98 126.905 152.848 127.565 152.848ZM132.962 157.978C132.962 156.934 133.172 156.022 133.592 155.242C134.024 154.462 134.618 153.862 135.374 153.442C136.142 153.022 137.018 152.812 138.002 152.812C139.262 152.812 140.312 153.142 141.152 153.802C142.004 154.462 142.562 155.392 142.826 156.592H139.55C139.274 155.824 138.74 155.44 137.948 155.44C137.384 155.44 136.934 155.662 136.598 156.106C136.262 156.538 136.094 157.162 136.094 157.978C136.094 158.794 136.262 159.424 136.598 159.868C136.934 160.3 137.384 160.516 137.948 160.516C138.74 160.516 139.274 160.132 139.55 159.364H142.826C142.562 160.54 142.004 161.464 141.152 162.136C140.3 162.808 139.25 163.144 138.002 163.144C137.018 163.144 136.142 162.934 135.374 162.514C134.618 162.094 134.024 161.494 133.592 160.714C133.172 159.934 132.962 159.022 132.962 157.978ZM146.02 151.912C145.48 151.912 145.036 151.756 144.688 151.444C144.352 151.12 144.184 150.724 144.184 150.256C144.184 149.776 144.352 149.38 144.688 149.068C145.036 148.744 145.48 148.582 146.02 148.582C146.548 148.582 146.98 148.744 147.316 149.068C147.664 149.38 147.838 149.776 147.838 150.256C147.838 150.724 147.664 151.12 147.316 151.444C146.98 151.756 146.548 151.912 146.02 151.912ZM147.55 152.956V163H144.472V152.956H147.55ZM149.169 157.96C149.169 156.928 149.361 156.022 149.745 155.242C150.141 154.462 150.675 153.862 151.347 153.442C152.019 153.022 152.769 152.812 153.597 152.812C154.305 152.812 154.923 152.956 155.451 153.244C155.991 153.532 156.405 153.91 156.693 154.378V152.956H159.771V163H156.693V161.578C156.393 162.046 155.973 162.424 155.433 162.712C154.905 163 154.287 163.144 153.579 163.144C152.763 163.144 152.019 162.934 151.347 162.514C150.675 162.082 150.141 161.476 149.745 160.696C149.361 159.904 149.169 158.992 149.169 157.96ZM156.693 157.978C156.693 157.21 156.477 156.604 156.045 156.16C155.625 155.716 155.109 155.494 154.497 155.494C153.885 155.494 153.363 155.716 152.931 156.16C152.511 156.592 152.301 157.192 152.301 157.96C152.301 158.728 152.511 159.34 152.931 159.796C153.363 160.24 153.885 160.462 154.497 160.462C155.109 160.462 155.625 160.24 156.045 159.796C156.477 159.352 156.693 158.746 156.693 157.978Z" fill="#1B1414"/>
<path d="M88.3275 59.87L72.0125 99H60.6375L77.1475 61.105H56.9325V51.615H88.3275V59.87ZM125.057 81.255H113.747V92.825H103.217V81.255H91.9071V71.31H103.217V59.675H113.747V71.31H125.057V81.255Z" fill="#1B1414"/>
</svg>
