<svg width="35" height="36" viewBox="0 0 35 36" fill="none" xmlns="http://www.w3.org/2000/svg">
<path d="M26.7677 7.13721C25.637 7.13721 24.7142 8.04549 24.7142 9.15857C24.7142 10.2717 25.637 11.1799 26.7677 11.1799C27.8985 11.1799 28.8212 10.2717 28.8212 9.15857C28.8212 8.04549 27.8985 7.13721 26.7677 7.13721Z" fill="#120C0C"/>
<path d="M17.6403 23.6468C14.5917 23.6468 12.122 21.2069 12.122 18.2149C12.122 15.214 14.6007 12.7831 17.6403 12.7831C20.6798 12.7831 23.1585 15.223 23.1585 18.2149C23.1585 21.2069 20.6798 23.6468 17.6403 23.6468ZM17.6403 9.72876C12.891 9.72876 9.01917 13.5311 9.01917 18.2149C9.01917 22.8899 12.8819 26.7011 17.6403 26.7011C22.3895 26.7011 26.2613 22.8988 26.2613 18.2149C26.2613 13.54 22.3986 9.72876 17.6403 9.72876Z" fill="#120C0C"/>
<path d="M10.5118 4.22568C6.5314 4.22568 3.29284 7.41356 3.29284 11.3316V25.0894C3.29284 29.0074 6.5314 32.1953 10.5118 32.1953H24.4882C28.4686 32.1953 31.7072 29.0074 31.7072 25.0894V11.3316C31.7072 7.41356 28.4686 4.22568 24.4882 4.22568H10.5118ZM24.4882 35.4366H10.5118C4.7131 35.4366 0 30.7973 0 25.0894V11.3316C0 5.62372 4.7131 0.984375 10.5118 0.984375H24.4882C30.2869 0.984375 35 5.62372 35 11.3316V25.0894C35 30.7973 30.2869 35.4366 24.4882 35.4366Z" fill="#120C0C"/>
</svg>
