<svg width="35" height="36" viewBox="0 0 35 36" fill="none" xmlns="http://www.w3.org/2000/svg">
<path d="M9.90789 29.5724L10.4982 29.921C12.6777 31.1994 15.157 31.8788 17.6725 31.8788C25.419 31.8788 31.7307 25.6748 31.7307 18.0406C31.7307 10.4154 25.4281 4.20254 17.6725 4.20254C9.92605 4.20254 3.61443 10.4064 3.61443 18.0406C3.61443 20.5615 4.32278 23.0377 5.67592 25.21L6.03918 25.8L4.63155 30.958L9.89881 29.5724H9.90789ZM0 35.5171L2.51557 26.2827C1.08978 23.7529 0.345096 20.9191 0.345096 18.0406C0.345096 8.63645 8.11884 0.984375 17.6725 0.984375C27.2263 0.984375 35 8.63645 35 18.0406C35 27.4448 27.2263 35.1059 17.6725 35.1059C14.8028 35.1059 11.9694 34.3907 9.43565 33.0409L0 35.526L0 35.5171Z" fill="#120C0C"/>
<path fill-rule="evenodd" clip-rule="evenodd" d="M24.1199 20.4189C23.4025 19.9987 22.4762 19.5249 21.6407 19.8646C20.9959 20.1239 20.5872 21.1161 20.1695 21.6257C19.9515 21.8849 19.6972 21.9296 19.3703 21.7955C16.9546 20.848 15.0929 19.2568 13.758 17.0666C13.5309 16.7269 13.5763 16.4587 13.8488 16.1459C14.2484 15.681 14.7569 15.1447 14.8659 14.5189C14.9749 13.8932 14.6752 13.1512 14.4118 12.588C14.0758 11.8729 13.6944 10.8448 12.9679 10.4426C12.2958 10.0671 11.4149 10.2817 10.8156 10.7555C9.78027 11.5868 9.28987 12.8741 9.29895 14.1613C9.30803 14.5279 9.35344 14.8944 9.43517 15.243C9.64405 16.0922 10.0436 16.8789 10.4886 17.6298C10.8246 18.193 11.197 18.7472 11.5875 19.2746C12.8861 21.0089 14.4936 22.5107 16.3553 23.637C17.2906 24.2002 18.2896 24.6919 19.3249 25.0316C20.4873 25.407 21.5317 25.8004 22.7849 25.5679C24.1018 25.3176 25.4004 24.522 25.9271 23.2705C26.0815 22.8951 26.1632 22.4839 26.0724 22.0995C25.8908 21.2949 24.7829 20.8122 24.1199 20.4189Z" fill="#120C0C"/>
</svg>
